<svg xmlns="http://www.w3.org/2000/svg" width="40" height="40" viewBox="0 0 40 40" fill="none">
    <path d="M8.09919 30.5992L8.09895 30.5991C7.22622 29.9483 6.42561 28.9206 5.84282 27.759C5.25998 26.5973 4.91675 25.3451 4.91675 24.2666V11.8666C4.91675 9.50736 6.67158 6.96177 8.89125 6.13513L8.89221 6.13477L17.2085 3.01826C17.2085 3.01823 17.2086 3.0182 17.2087 3.01817C17.9622 2.73661 18.9617 2.5874 19.9834 2.5874C21.0052 2.5874 22.0047 2.73662 22.7582 3.01819C22.7582 3.01821 22.7583 3.01824 22.7584 3.01826L31.0746 6.13477L31.0756 6.13513C33.2953 6.96177 35.0501 9.50736 35.0501 11.8666V24.2499C35.0501 25.3371 34.7067 26.5892 34.1242 27.7483C33.5417 28.9073 32.7411 29.9313 31.8679 30.5824L31.8676 30.5826L24.701 35.9326L24.7009 35.9325L24.6948 35.9373C23.4121 36.9264 21.7241 37.4332 20.0001 37.4332C18.2775 37.4332 16.5853 36.927 15.265 35.9486C15.2648 35.9484 15.2646 35.9483 15.2645 35.9482L8.09919 30.5992ZM17.742 4.43145L17.7413 4.4317L9.42462 7.54837L9.42392 7.54863C8.59634 7.86019 7.8551 8.52248 7.32418 9.29061C6.79309 10.059 6.43341 10.9898 6.43341 11.8832V24.2666C6.43341 25.161 6.744 26.1892 7.201 27.101C7.65788 28.0126 8.29337 28.8722 9.00094 29.4005L9.00098 29.4006L16.1673 34.7503C17.2293 35.5445 18.6283 35.9249 20.0022 35.9249C21.3762 35.9249 22.7784 35.5445 23.8479 34.7516L23.8492 34.7506L31.0159 29.4006L31.0167 29.3999C31.7315 28.8638 32.367 28.005 32.8223 27.0943C33.2776 26.1837 33.5834 25.16 33.5834 24.2666V11.8666C33.5834 10.9804 33.223 10.0538 32.6926 9.28645C32.1621 8.51889 31.4224 7.85396 30.5977 7.5338L30.5977 7.53376L30.5922 7.5317L22.2755 4.41503L22.2756 4.41495L22.2665 4.41174C21.6283 4.18651 20.8003 4.08314 20.0008 4.08532C19.2022 4.0875 18.3753 4.19514 17.742 4.43145ZM31.2499 5.667L31.2499 5.66698L31.2499 5.667Z" fill="#FAFAFA" stroke="#FAFAFA"/>
    <path d="M17.413 21.0536L17.7666 21.4071L18.1201 21.0536L24.4035 14.7703C24.6915 14.4822 25.1749 14.4822 25.463 14.7703C25.7511 15.0583 25.7511 15.5417 25.463 15.8298L18.2963 22.9965C18.1451 23.1478 17.9578 23.2167 17.7666 23.2167C17.5754 23.2167 17.3881 23.1478 17.2368 22.9965L14.5535 20.3131C14.2654 20.0251 14.2654 19.5417 14.5535 19.2536C14.8415 18.9655 15.3249 18.9655 15.613 19.2536L17.413 21.0536Z" fill="#FAFAFA" stroke="#FAFAFA"/>
  </svg>