<svg xmlns="http://www.w3.org/2000/svg" width="40" height="40" viewBox="0 0 40 40" fill="none">
    <path d="M11.6665 11.6667V8.33339C11.6665 7.36818 11.9459 6.42362 12.4709 5.6137C12.996 4.80379 13.7442 4.16315 14.6253 3.76912C15.5064 3.37509 16.4828 3.24451 17.4364 3.39313C18.3901 3.54176 19.2804 3.96325 19.9998 4.60672C20.7193 3.96325 21.6095 3.54176 22.5632 3.39313C23.5169 3.24451 24.4933 3.37509 25.3744 3.76912C26.2555 4.16315 27.0037 4.80379 27.5287 5.6137C28.0538 6.42362 28.3331 7.36818 28.3332 8.33339V11.6667H30.8332C31.4962 11.6667 32.1321 11.9301 32.6009 12.399C33.0698 12.8678 33.3332 13.5037 33.3332 14.1667V30.8417C33.3332 32.3866 32.7195 33.8682 31.6271 34.9606C30.5347 36.053 29.0531 36.6667 27.5082 36.6667H13.3332C11.5651 36.6667 9.86937 35.9643 8.61913 34.7141C7.36888 33.4639 6.6665 31.7682 6.6665 30.0001V14.1667C6.6665 13.5037 6.9299 12.8678 7.39874 12.399C7.86758 11.9301 8.50346 11.6667 9.1665 11.6667H11.6665ZM22.7248 34.1667C22.0449 33.1914 21.6813 32.0306 21.6832 30.8417V14.1667H9.1665V30.0001C9.1665 30.5472 9.27428 31.089 9.48367 31.5946C9.69307 32.1001 9.99998 32.5594 10.3869 32.9463C10.7738 33.3332 11.2331 33.6402 11.7387 33.8496C12.2442 34.0589 12.786 34.1667 13.3332 34.1667H22.7248ZM19.1665 11.6667V8.33339C19.1665 7.67035 18.9031 7.03446 18.4343 6.56562C17.9654 6.09678 17.3295 5.83339 16.6665 5.83339C16.0035 5.83339 15.3676 6.09678 14.8987 6.56562C14.4299 7.03446 14.1665 7.67035 14.1665 8.33339V11.6667H19.1665ZM21.6665 11.6667H25.8332V8.33339C25.8332 7.81878 25.6745 7.31669 25.3786 6.89566C25.0827 6.47463 24.664 6.15517 24.1798 5.98089C23.6956 5.8066 23.1695 5.78599 22.6731 5.92186C22.1768 6.05773 21.7344 6.34346 21.4065 6.74005C21.5748 7.24005 21.6665 7.77672 21.6665 8.33339V11.6667ZM24.1832 30.8417C24.1832 31.7236 24.5335 32.5693 25.157 33.1929C25.7806 33.8164 26.6263 34.1667 27.5082 34.1667C28.39 34.1667 29.2357 33.8164 29.8593 33.1929C30.4829 32.5693 30.8332 31.7236 30.8332 30.8417V14.1667H24.1832V30.8417Z" fill="white"/>
  </svg>