<svg xmlns="http://www.w3.org/2000/svg" width="40" height="40" viewBox="0 0 40 40" fill="none">
    <path d="M19.9998 37.2728C29.5392 37.2728 37.2725 29.5395 37.2725 20C37.2725 10.4606 29.5392 2.72729 19.9998 2.72729C10.4603 2.72729 2.72705 10.4606 2.72705 20C2.72705 29.5395 10.4603 37.2728 19.9998 37.2728Z" stroke="black" stroke-width="2" stroke-linecap="round" stroke-linejoin="round"/>
    <path d="M25.0909 14.547C24.7615 13.9758 24.283 13.505 23.7065 13.1848C23.13 12.8646 22.4772 12.7072 21.8181 12.7294H18.1818C17.2174 12.7294 16.2924 13.1124 15.6105 13.7941C14.9285 14.4759 14.5454 15.4005 14.5454 16.3647C14.5454 17.3288 14.9285 18.2535 15.6105 18.9353C16.2924 19.617 17.2174 20 18.1818 20H21.8181C22.7826 20 23.7075 20.383 24.3894 21.0648C25.0714 21.7465 25.4545 22.6712 25.4545 23.6354C25.4545 24.5995 25.0714 25.5242 24.3894 26.2059C23.7075 26.8877 22.7826 27.2707 21.8181 27.2707H18.1818C17.5227 27.2929 16.8699 27.1354 16.2934 26.8153C15.717 26.4951 15.2384 26.0242 14.909 25.453" stroke="black" stroke-width="2.75" stroke-linecap="round" stroke-linejoin="round"/>
    <path d="M20 8.18176V12.1212M20 27.8787V31.8181" stroke="black" stroke-width="2.75" stroke-linecap="round" stroke-linejoin="round"/>
  </svg>