<svg xmlns="http://www.w3.org/2000/svg" width="31" height="34" viewBox="0 0 31 34" fill="none">
    <path d="M15.9273 15.1456V15.6456L16.4273 15.6456C17.0911 15.6457 17.7385 15.8514 18.2805 16.2346C18.8224 16.6178 19.2323 17.1596 19.4536 17.7854C19.4722 17.8382 19.4803 17.8942 19.4773 17.9502C19.4743 18.0062 19.4603 18.0611 19.4361 18.1117C19.4119 18.1624 19.378 18.2077 19.3362 18.2452C19.2945 18.2828 19.2458 18.3117 19.1929 18.3304C19.1399 18.3491 19.0839 18.3571 19.0278 18.3542C18.9718 18.3512 18.9169 18.3372 18.8663 18.313C18.764 18.2641 18.6854 18.1766 18.6476 18.0697L18.6475 18.0695C18.4851 17.6104 18.1844 17.213 17.7868 16.9319C17.3891 16.6509 16.9141 16.5 16.4272 16.5002L15.9273 16.5003V17.0002V20.7092V21.2092H16.4273C17.2784 21.2092 18.0947 21.5473 18.6965 22.1491C19.2983 22.7509 19.6364 23.5672 19.6364 24.4183C19.6364 25.2694 19.2983 26.0856 18.6965 26.6874C18.0947 27.2892 17.2784 27.6273 16.4273 27.6273H15.9273V28.1273V28.5546H15.0728V28.1273V27.6273L14.5728 27.6273C13.9091 27.6273 13.2617 27.4215 12.7197 27.0383C12.1777 26.6551 11.7679 26.1134 11.5466 25.4876L11.5468 25.4875L11.5417 25.4744C11.5212 25.4211 11.5115 25.3642 11.5133 25.3071C11.5151 25.25 11.5284 25.1939 11.5523 25.142C11.5762 25.0901 11.6102 25.0435 11.6525 25.005C11.6947 24.9665 11.7442 24.9369 11.798 24.9179C11.8519 24.8988 11.909 24.8908 11.9661 24.8942C12.0231 24.8977 12.0788 24.9125 12.13 24.9379C12.1812 24.9632 12.2268 24.9986 12.2641 25.0419C12.3014 25.0852 12.3296 25.1355 12.3471 25.1899L12.3494 25.1969L12.3518 25.2039C12.6763 26.1186 13.5479 26.7728 14.5728 26.7728H15.0728V26.2728V22.5637V22.0637H14.5728C13.7217 22.0637 12.9055 21.7256 12.3037 21.1238C11.7019 20.522 11.3638 19.7058 11.3638 18.8547C11.3638 18.0036 11.7019 17.1874 12.3037 16.5856C12.9055 15.9837 13.7217 15.6456 14.5728 15.6456H15.0728V15.1456V14.7184H15.9273V15.1456ZM15.0728 17.0002V16.5002H14.5728C13.9484 16.5002 13.3495 16.7482 12.9079 17.1898C12.4664 17.6314 12.2183 18.2302 12.2183 18.8547C12.2183 19.4792 12.4664 20.078 12.9079 20.5196C13.3495 20.9612 13.9484 21.2092 14.5728 21.2092H15.0728V20.7092V17.0002ZM15.9273 26.2728V26.7728H16.4273C17.0518 26.7728 17.6507 26.5247 18.0922 26.0832C18.5338 25.6416 18.7819 25.0427 18.7819 24.4183C18.7819 23.7938 18.5338 23.1949 18.0922 22.7534C17.6507 22.3118 17.0518 22.0637 16.4273 22.0637H15.9273V22.5637V26.2728Z" fill="#FAFAFA" stroke="#FAFAFA"/>
    <path d="M22.7695 9.5772L23.0001 9.82027C24.8981 11.8211 26.4858 14.0948 27.7105 16.5658L27.7115 16.5677C28.9873 19.1703 29.7037 21.8133 29.5867 24.1301L29.5867 24.1301C29.4723 26.3912 28.5716 28.3572 26.5218 29.806L26.5218 29.806C24.4129 31.296 20.9467 32.3336 15.5354 32.3336C10.1198 32.3336 6.63966 31.3141 4.51316 29.8421L4.51293 29.842C2.44943 28.412 1.53763 26.472 1.41014 24.2374L22.7695 9.5772ZM22.7695 9.5772L22.457 9.69804M22.7695 9.5772L22.457 9.69804M22.457 9.69804C18.1083 11.3797 12.8707 11.3798 8.5219 9.69983L8.34173 10.1662L7.97519 9.82617C6.15729 11.7856 4.46566 14.1897 3.25095 16.6929L3.25091 16.6929M22.457 9.69804L3.25091 16.6929M3.25091 16.6929C1.98037 19.3123 1.2784 21.9432 1.41013 24.2372L3.25091 16.6929ZM25.3428 3.18139C25.7832 3.39923 26.1642 3.60759 26.4775 3.79428L23.3457 8.3725L23.114 8.71114L23.4009 9.00444C25.3394 10.9861 27.1697 13.5164 28.4805 16.1919C29.7935 18.8721 30.5679 21.6624 30.441 24.1735C30.3151 26.6637 29.3054 28.8863 27.0163 30.5035C24.7051 32.1363 21.0382 33.1881 15.5364 33.1881C10.0332 33.1881 6.35436 32.1551 4.02802 30.5441C1.72448 28.9489 0.699103 26.7543 0.558033 24.2856C0.415712 21.7951 1.17576 19.0153 2.48354 16.3201C3.7889 13.6299 5.62285 11.0598 7.58124 8.99926L7.85891 8.70711L7.63235 8.37375L4.52247 3.79791C4.67984 3.70521 4.8536 3.60746 5.04301 3.50656L5.04302 3.50656L5.04474 3.50564C5.23531 3.40316 5.44085 3.29767 5.66136 3.19013L5.85726 3.09459C8.10344 2.02401 11.6645 0.809448 15.5364 0.809448C19.4385 0.809448 22.9975 2.04283 25.2165 3.12006L25.3412 3.18057C25.3417 3.18084 25.3423 3.18111 25.3428 3.18139ZM24.7117 4.86178L25.2968 4.00635L24.2631 4.08078C21.6696 4.26751 18.6003 4.87479 15.6554 5.7274C13.6714 6.30056 11.4387 6.21929 9.33386 5.83106C8.80462 5.73294 8.27901 5.61613 7.75803 5.48086L6.47261 5.14712L7.21875 6.24574L8.99909 8.86711L9.09097 9.00238L9.24502 9.05723C13.1692 10.4543 17.7996 10.4542 21.7245 9.05917L21.5571 8.58804L21.9698 8.87033L24.7117 4.86178ZM9.48767 4.99046L9.48813 4.99055C11.523 5.36535 13.6079 5.42979 15.4168 4.90582L15.4175 4.90561C17.3859 4.33216 19.388 3.88116 21.4122 3.5552L21.4768 2.58279C19.7353 2.05845 17.6905 1.66397 15.5354 1.66397C12.2536 1.66397 9.20629 2.57787 7.08002 3.48035L7.27538 3.94061L7.1328 4.41985C7.88966 4.64501 8.68211 4.84132 9.48767 4.99046Z" fill="#FAFAFA" stroke="#FAFAFA"/>
  </svg>